<svg height="48" viewBox="0 0 48 48" width="48" xmlns="http://www.w3.org/2000/svg"><path d="m0 0h48v48h-48z" fill="none"/><path d="m35.23 20.781c2.261-1.414 3.77-3.918 3.77-6.781 0-4.418-3.582-8-8-8s-8 3.582-8 8c0 2.863 1.509 5.367 3.77 6.781-1.423.537-2.714 1.334-3.821 2.337-.439-4.003-3.829-7.118-7.949-7.118-4.418 0-8 3.582-8 8 0 2.863 1.509 5.367 3.77 6.781-4.538 1.711-7.77 6.081-7.77 11.219h24c0-4.177-2.134-7.851-5.37-10h21.37c0-5.138-3.232-9.508-7.77-11.219zm-10.23-6.781c0-3.308 2.692-6 6-6s6 2.692 6 6-2.692 6-6 6-6-2.692-6-6zm6 8c4.829 0 8.87 3.441 9.799 8h-19.598c.111-.544.269-1.071.464-1.579.349-.525.631-1.096.849-1.699 1.769-2.832 4.909-4.722 8.486-4.722zm-22 2c0-3.308 2.692-6 6-6s6 2.692 6 6c0 .651-.108 1.277-.3 1.864-.304.51-.577 1.039-.805 1.593-1.088 1.536-2.874 2.543-4.895 2.543-3.308 0-6-2.692-6-6zm15.799 16h-19.598c.929-4.559 4.97-8 9.799-8s8.87 3.441 9.799 8z"/></svg>