<svg viewBox="0 0 64 64" xmlns="http://www.w3.org/2000/svg"><g transform="matrix(1.65 0 0 1.65 -20.7075 -1.65)"><circle cx="31.9" cy="25.5" fill="#d0d0d0" r="13"/><path d="m31.9 14.5c-6.1 0-11 4.9-11 11s4.9 11 11 11 11-4.9 11-11c0-6-4.9-11-11-11" fill="#fff"/><circle cx="31.9" cy="26.4" fill="#ff8736" r="2.5"/><g fill="#3e4347"><circle cx="26.5" cy="21.8" r="2"/><circle cx="37.3" cy="21.8" r="2"/></g><g fill="#94989b"><ellipse cx="36.2" cy="14.5" rx="2.6" ry="10.1" transform="matrix(.42260244 -.90631516 .90631516 .42260244 7.709191 41.154773)"/><ellipse cx="40.3" cy="5.6" rx="1.9" ry="7.6" transform="matrix(.42260244 -.90631516 .90631516 .42260244 18.161129 39.778714)"/><path d="m39.5 7.4c-3.5-1.7-6.1-3.7-6.1-4.7l-2.3 9.2c-.3.7 1.7 2.4 4.5 3.7s5.4 1.8 5.7 1.1l5.7-7.7c-.7.7-4 0-7.5-1.6" fill="#3e4347"/></g><path d="m31.9 34c-3.1 0-6-1.3-8.1-3.6-.4-.4-.3-1 .1-1.4s1-.3 1.4.1c1.7 1.9 4.2 2.9 6.7 2.9s4.9-1.1 6.7-2.9c.4-.4 1-.4 1.4-.1.4.4.4 1 .1 1.4-2.2 2.2-5.2 3.6-8.3 3.6" fill="#3e4347"/></g></svg>